<svg aria-hidden="true" role="img" viewBox="0 0 67 64" fill="none" xmlns="http://www.w3.org/2000/svg">
<path d="M57.0427 14.0591C57.3403 11.6636 59.5326 9.72162 61.9394 9.72162C64.3462 9.72162 66.056 11.6636 65.7584 14.0591L61.6694 46.9734C61.3718 49.369 59.1795 51.3109 56.7727 51.3109C54.3659 51.3109 52.6561 49.369 52.9537 46.9734L57.0427 14.0591Z" fill="#190D30"></path>
<path d="M28.5652 48.1763H47.2655L45.7784 59.3365C45.4796 61.5784 43.4099 63.3958 41.1556 63.3958H26.5371L28.5652 48.1763Z" fill="#190D30" stroke="#190D30" stroke-width="1.2152"></path>
<path d="M27.2405 48.1763H45.9408L44.6441 57.9075C44.474 59.1835 43.296 60.2179 42.0129 60.2179H25.6359L27.2405 48.1763Z" fill="white" stroke="#190D30" stroke-width="1.2152"></path>
<path d="M29.5696 61.8335C29.7021 60.637 30.7829 59.6671 31.9836 59.6671H45.3788L44.7805 61.3895C44.2491 62.9191 42.7593 63.9998 41.1822 63.9998H31.5037C30.303 63.9998 29.4371 63.0299 29.5696 61.8335Z" fill="#190D30"></path>
<path d="M19.6142 61.8335C19.7097 60.9714 20.4884 60.2726 21.3536 60.2726H39.8713C40.7364 60.2726 41.3603 60.9714 41.2648 61.8335C41.1693 62.6955 40.3906 63.3943 39.5255 63.3943H21.0077C20.1426 63.3943 19.5187 62.6955 19.6142 61.8335Z" fill="white" stroke="#190D30" stroke-width="1.2152"></path>
<path d="M6.22908 12.6388C6.38774 11.3617 7.55653 10.3264 8.83966 10.3264H61.8559C63.139 10.3264 64.0506 11.3617 63.8919 12.6388L60.3533 41.1232C60.1946 42.4003 59.0258 43.4356 57.7427 43.4356H2.40315L6.22908 12.6388Z" fill="white" stroke="#190D30" stroke-width="1.2152"></path>
<circle r="17.8659" transform="matrix(1 0 -0.115457 0.993312 34.3319 17.7464)" fill="#C9CCDE"></circle>
<path d="M25.6325 18.5915L30.1477 23.6619L42.01 13.0986" stroke="white" stroke-width="1.2152"></path>
<path d="M2.2854 44.6265H56.988L56.2327 50.7062H3.85341C2.57029 50.7062 1.65873 49.6709 1.81739 48.3937L2.2854 44.6265Z" fill="#190D30" stroke="#190D30" stroke-width="1.2152"></path>
<path d="M23.2124 47.4726C23.2944 46.7325 23.9629 46.1326 24.7056 46.1326H36.8011C37.5438 46.1326 38.0794 46.7325 37.9974 47.4726C37.9154 48.2126 37.2469 48.8126 36.5042 48.8126H24.4087C23.666 48.8126 23.1304 48.2126 23.2124 47.4726Z" fill="white"></path>
</svg>